<mxfile host="app.diagrams.net" modified="2020-11-16T19:53:42.845Z" agent="5.0 (Windows NT 10.0; Win64; x64) AppleWebKit/537.36 (KHTML, like Gecko) Chrome/86.0.4240.198 Safari/537.36" etag="XoUFpQryOpmib1Ua59b9" version="13.9.9" type="github">
  <diagram name="Page-1" id="9f46799a-70d6-7492-0946-bef42562c5a5">
    <mxGraphModel dx="1133" dy="1112" grid="1" gridSize="10" guides="1" tooltips="1" connect="1" arrows="1" fold="1" page="1" pageScale="1" pageWidth="1100" pageHeight="850" background="#ffffff" math="0" shadow="0">
      <root>
        <mxCell id="0" />
        <mxCell id="1" parent="0" />
        <mxCell id="0Nxc5I6BaaNkcupMPX7g-27" style="edgeStyle=orthogonalEdgeStyle;rounded=0;orthogonalLoop=1;jettySize=auto;html=1;exitX=0.5;exitY=1;exitDx=0;exitDy=0;entryX=0.5;entryY=0;entryDx=0;entryDy=0;" parent="1" source="0Nxc5I6BaaNkcupMPX7g-1" target="0Nxc5I6BaaNkcupMPX7g-2" edge="1">
          <mxGeometry relative="1" as="geometry" />
        </mxCell>
        <mxCell id="0Nxc5I6BaaNkcupMPX7g-28" style="edgeStyle=orthogonalEdgeStyle;rounded=0;orthogonalLoop=1;jettySize=auto;html=1;exitX=0.5;exitY=0;exitDx=0;exitDy=0;entryX=0.557;entryY=0.003;entryDx=0;entryDy=0;entryPerimeter=0;" parent="1" source="0Nxc5I6BaaNkcupMPX7g-1" target="0Nxc5I6BaaNkcupMPX7g-5" edge="1">
          <mxGeometry relative="1" as="geometry" />
        </mxCell>
        <mxCell id="0Nxc5I6BaaNkcupMPX7g-1" value="" style="whiteSpace=wrap;html=1;aspect=fixed;" parent="1" vertex="1">
          <mxGeometry x="60" y="122.5" width="130" height="130" as="geometry" />
        </mxCell>
        <mxCell id="0Nxc5I6BaaNkcupMPX7g-2" value="" style="rounded=0;whiteSpace=wrap;html=1;" parent="1" vertex="1">
          <mxGeometry x="60" y="280" width="130" height="180" as="geometry" />
        </mxCell>
        <mxCell id="0Nxc5I6BaaNkcupMPX7g-3" value="" style="rounded=0;whiteSpace=wrap;html=1;" parent="1" vertex="1">
          <mxGeometry x="270" y="240" width="220" height="340" as="geometry" />
        </mxCell>
        <mxCell id="0Nxc5I6BaaNkcupMPX7g-26" style="edgeStyle=orthogonalEdgeStyle;rounded=0;orthogonalLoop=1;jettySize=auto;html=1;exitX=0.75;exitY=1;exitDx=0;exitDy=0;entryX=0.75;entryY=0;entryDx=0;entryDy=0;" parent="1" source="0Nxc5I6BaaNkcupMPX7g-4" target="0Nxc5I6BaaNkcupMPX7g-3" edge="1">
          <mxGeometry relative="1" as="geometry" />
        </mxCell>
        <mxCell id="0Nxc5I6BaaNkcupMPX7g-4" value="" style="rounded=0;whiteSpace=wrap;html=1;" parent="1" vertex="1">
          <mxGeometry x="270" y="122.5" width="220" height="70" as="geometry" />
        </mxCell>
        <mxCell id="0Nxc5I6BaaNkcupMPX7g-5" value="" style="rounded=0;whiteSpace=wrap;html=1;" parent="1" vertex="1">
          <mxGeometry x="520" y="122.5" width="210" height="165" as="geometry" />
        </mxCell>
        <mxCell id="0Nxc5I6BaaNkcupMPX7g-7" value="Posts from all users&amp;nbsp;" style="text;html=1;strokeColor=none;fillColor=none;align=center;verticalAlign=middle;whiteSpace=wrap;rounded=0;" parent="1" vertex="1">
          <mxGeometry x="330" y="350" width="100" height="20" as="geometry" />
        </mxCell>
        <mxCell id="0Nxc5I6BaaNkcupMPX7g-8" value="" style="rounded=0;whiteSpace=wrap;html=1;" parent="1" vertex="1">
          <mxGeometry x="50" y="30" width="680" height="60" as="geometry" />
        </mxCell>
        <mxCell id="0Nxc5I6BaaNkcupMPX7g-10" value="Header/Navbar" style="text;html=1;strokeColor=none;fillColor=none;align=center;verticalAlign=middle;whiteSpace=wrap;rounded=0;" parent="1" vertex="1">
          <mxGeometry x="300" y="45" width="120" height="30" as="geometry" />
        </mxCell>
        <mxCell id="0Nxc5I6BaaNkcupMPX7g-11" value="User" style="text;html=1;strokeColor=none;fillColor=none;align=center;verticalAlign=middle;whiteSpace=wrap;rounded=0;" parent="1" vertex="1">
          <mxGeometry x="100" y="140" width="40" height="20" as="geometry" />
        </mxCell>
        <mxCell id="0Nxc5I6BaaNkcupMPX7g-12" value="User details" style="text;html=1;strokeColor=none;fillColor=none;align=center;verticalAlign=middle;whiteSpace=wrap;rounded=0;" parent="1" vertex="1">
          <mxGeometry x="100" y="310" width="60" height="70" as="geometry" />
        </mxCell>
        <mxCell id="0Nxc5I6BaaNkcupMPX7g-13" value="Post list" style="text;html=1;strokeColor=none;fillColor=none;align=center;verticalAlign=middle;whiteSpace=wrap;rounded=0;" parent="1" vertex="1">
          <mxGeometry x="350" y="210" width="60" height="20" as="geometry" />
        </mxCell>
        <mxCell id="0Nxc5I6BaaNkcupMPX7g-14" value="Add Post" style="text;html=1;strokeColor=none;fillColor=none;align=center;verticalAlign=middle;whiteSpace=wrap;rounded=0;" parent="1" vertex="1">
          <mxGeometry x="360" y="147.5" width="40" height="20" as="geometry" />
        </mxCell>
        <mxCell id="0Nxc5I6BaaNkcupMPX7g-15" value="Other Users" style="text;html=1;strokeColor=none;fillColor=none;align=center;verticalAlign=middle;whiteSpace=wrap;rounded=0;" parent="1" vertex="1">
          <mxGeometry x="582.5" y="140" width="90" height="20" as="geometry" />
        </mxCell>
        <mxCell id="0Nxc5I6BaaNkcupMPX7g-17" value="click on other user to see info&amp;nbsp;" style="text;html=1;strokeColor=none;fillColor=none;align=center;verticalAlign=middle;whiteSpace=wrap;rounded=0;" parent="1" vertex="1">
          <mxGeometry x="560" y="220" width="150" height="32.5" as="geometry" />
        </mxCell>
        <mxCell id="0Nxc5I6BaaNkcupMPX7g-18" value="click post to see user page" style="text;html=1;strokeColor=none;fillColor=none;align=center;verticalAlign=middle;whiteSpace=wrap;rounded=0;" parent="1" vertex="1">
          <mxGeometry x="285" y="300" width="190" height="20" as="geometry" />
        </mxCell>
        <mxCell id="0Nxc5I6BaaNkcupMPX7g-20" value="Users the user follows" style="text;html=1;strokeColor=none;fillColor=none;align=center;verticalAlign=middle;whiteSpace=wrap;rounded=0;" parent="1" vertex="1">
          <mxGeometry x="60" y="226.25" width="115" height="20" as="geometry" />
        </mxCell>
        <mxCell id="0Nxc5I6BaaNkcupMPX7g-21" value="this user tweets" style="text;html=1;strokeColor=none;fillColor=none;align=center;verticalAlign=middle;whiteSpace=wrap;rounded=0;" parent="1" vertex="1">
          <mxGeometry x="10" y="180" width="90" height="20" as="geometry" />
        </mxCell>
        <mxCell id="0Nxc5I6BaaNkcupMPX7g-22" value="Users that follow user" style="text;html=1;strokeColor=none;fillColor=none;align=center;verticalAlign=middle;whiteSpace=wrap;rounded=0;" parent="1" vertex="1">
          <mxGeometry x="140" y="180" width="70" height="20" as="geometry" />
        </mxCell>
        <mxCell id="0Nxc5I6BaaNkcupMPX7g-23" value="Post list&amp;nbsp;&lt;br&gt;List&amp;nbsp;&lt;br&gt;add Post&amp;nbsp;" style="text;html=1;strokeColor=none;fillColor=none;align=center;verticalAlign=middle;whiteSpace=wrap;rounded=0;" parent="1" vertex="1">
          <mxGeometry x="270" y="680" width="220" height="80" as="geometry" />
        </mxCell>
        <mxCell id="0Nxc5I6BaaNkcupMPX7g-24" value="User&lt;br&gt;add User&lt;br&gt;" style="text;html=1;strokeColor=none;fillColor=none;align=center;verticalAlign=middle;whiteSpace=wrap;rounded=0;" parent="1" vertex="1">
          <mxGeometry x="542.5" y="560" width="130" height="130" as="geometry" />
        </mxCell>
        <mxCell id="0Nxc5I6BaaNkcupMPX7g-25" value="User List" style="text;html=1;strokeColor=none;fillColor=none;align=center;verticalAlign=middle;whiteSpace=wrap;rounded=0;" parent="1" vertex="1">
          <mxGeometry x="595" y="175" width="65" height="25" as="geometry" />
        </mxCell>
        <mxCell id="0Nxc5I6BaaNkcupMPX7g-29" value="find users" style="text;html=1;strokeColor=none;fillColor=none;align=center;verticalAlign=middle;whiteSpace=wrap;rounded=0;" parent="1" vertex="1">
          <mxGeometry x="580" y="50" width="90" height="20" as="geometry" />
        </mxCell>
      </root>
    </mxGraphModel>
  </diagram>
</mxfile>
